<!-- Generated by IcoMoon.io -->
<svg version="1.1" xmlns="http://www.w3.org/2000/svg" width="1809" height="1024" viewBox="0 0 1809 1024">
<g id="icomoon-ignore">
</g>
<path d="M621.334 837.997c0.271 0.007 0.539 0.060 0.787 0.157s0.469 0.237 0.655 0.41l3.722 3.558c-2.889 2.879-6.46 5.183-10.469 6.753-4.695 1.712-9.755 2.538-14.845 2.425-4.782 0.085-9.533-0.684-13.959-2.265-3.992-1.451-7.578-3.628-10.516-6.388-2.999-2.862-5.309-6.217-6.794-9.866-1.626-4.069-2.429-8.351-2.372-12.657-0.067-4.333 0.802-8.639 2.558-12.696 1.626-3.673 4.077-7.026 7.212-9.866 3.178-2.784 6.979-4.973 11.168-6.429 4.582-1.545 9.463-2.313 14.379-2.265 4.565-0.096 9.107 0.604 13.355 2.062 3.685 1.389 7.069 3.318 10.004 5.702l-3.118 3.801c-0.215 0.268-0.483 0.5-0.792 0.688-0.367 0.218-0.812 0.319-1.256 0.283-0.483-0.029-0.949-0.169-1.348-0.404l-1.676-1.012-2.326-1.294c-1.005-0.48-2.046-0.899-3.118-1.253-1.381-0.43-2.796-0.768-4.234-1.010-1.826-0.294-3.681-0.428-5.538-0.404-3.538-0.039-7.050 0.538-10.329 1.698-3.058 1.073-5.818 2.7-8.096 4.77-2.321 2.203-4.11 4.789-5.258 7.603-1.311 3.219-1.958 6.613-1.908 10.027-0.056 3.468 0.589 6.917 1.908 10.191 1.135 2.789 2.889 5.359 5.164 7.561 2.132 2.053 4.774 3.657 7.724 4.692 3.038 1.094 6.298 1.644 9.586 1.616 1.898 0.026 3.797-0.082 5.676-0.323 3.069-0.326 6.011-1.253 8.608-2.71 1.302-0.746 2.531-1.584 3.676-2.507 0.478-0.396 1.108-0.626 1.768-0.647z"></path>
<path d="M728.822 820.118c0.058 4.291-0.794 8.552-2.514 12.575-1.516 3.647-3.905 6.975-7.008 9.762-3.104 2.789-6.852 4.973-10.999 6.41-9.11 3.019-19.181 3.019-28.291 0-4.118-1.459-7.842-3.649-10.935-6.429-3.101-2.838-5.507-6.193-7.072-9.865-3.352-8.144-3.352-17.046 0-25.189 1.587-3.674 3.99-7.040 7.072-9.907 3.118-2.691 6.84-4.797 10.935-6.185 9.1-3.074 19.193-3.074 28.291 0 4.134 1.459 7.873 3.647 10.982 6.429 3.063 2.809 5.451 6.122 7.025 9.743 1.725 4.048 2.577 8.339 2.514 12.655zM719.049 820.118c0.073-3.432-0.524-6.849-1.768-10.109-1.043-2.79-2.737-5.364-4.978-7.561-2.181-2.077-4.867-3.707-7.864-4.77-6.618-2.21-13.947-2.21-20.567 0-2.995 1.063-5.681 2.693-7.863 4.77-2.273 2.183-3.985 4.76-5.026 7.561-2.367 6.583-2.367 13.635 0 20.217 1.051 2.797 2.763 5.373 5.026 7.561 2.185 2.065 4.871 3.681 7.863 4.731 6.632 2.154 13.937 2.154 20.567 0 2.993-1.050 5.68-2.666 7.864-4.731 2.231-2.202 3.925-4.774 4.978-7.561 1.249-3.258 1.847-6.676 1.768-10.109z"></path>
<path d="M802.156 830.715l0.978 2.265c0.372-0.809 0.698-1.538 1.070-2.265 0.355-0.759 0.758-1.502 1.21-2.224l23.777-37.557c0.466-0.647 0.884-1.050 1.35-1.172 0.631-0.167 1.294-0.236 1.954-0.201h7.026v61.085h-8.33v-44.914c0-0.567 0-1.213 0-1.9-0.044-0.7-0.044-1.403 0-2.103l-23.917 38.083c-0.304 0.57-0.788 1.053-1.399 1.389-0.611 0.338-1.321 0.514-2.043 0.51h-1.35c-0.725 0.009-1.437-0.166-2.048-0.503s-1.096-0.823-1.396-1.396l-24.615-38.325c0 0.727 0 1.456 0 2.183s0 1.374 0 1.94v44.914h-8.049v-60.964h7.026c0.659-0.034 1.321 0.034 1.954 0.201 0.577 0.249 1.036 0.664 1.302 1.172l24.289 37.598c0.478 0.695 0.882 1.425 1.21 2.183z"></path>
<path d="M891.636 827.68v22.881h-9.306v-61.003h20.753c3.919-0.065 7.825 0.384 11.587 1.333 3.012 0.742 5.806 2.038 8.19 3.801 2.067 1.652 3.661 3.7 4.652 5.984 1.099 2.488 1.637 5.137 1.582 7.801 0.041 2.676-0.544 5.33-1.72 7.803-1.12 2.34-2.838 4.429-5.026 6.105-2.388 1.835-5.193 3.214-8.236 4.041-3.623 1.007-7.412 1.485-11.215 1.415l-11.261-0.16zM891.636 821.13h11.261c2.447 0.029 4.881-0.285 7.212-0.928 1.923-0.563 3.697-1.457 5.212-2.628 1.398-1.12 2.481-2.502 3.164-4.043 0.761-1.63 1.142-3.374 1.116-5.134 0.109-1.696-0.21-3.391-0.934-4.97-0.722-1.577-1.833-3-3.253-4.166-3.555-2.412-8.021-3.581-12.518-3.275h-11.261v25.144z"></path>
<path d="M1016.714 850.644h-7.352c-0.737 0.024-1.463-0.176-2.048-0.567-0.527-0.381-0.942-0.865-1.21-1.415l-6.328-14.758h-31.78l-6.562 14.758c-0.241 0.539-0.642 1.014-1.162 1.376-0.592 0.413-1.335 0.628-2.094 0.606h-7.352l27.919-61.092h9.679l28.291 61.092zM970.648 827.962h26.243l-11.075-24.866c-0.847-1.871-1.546-3.789-2.094-5.741l-1.070 3.195c-0.326 0.969-0.698 1.86-1.024 2.587l-10.981 24.825z"></path>
<path d="M1056.918 789.837c0.556 0.265 1.034 0.638 1.396 1.091l40.714 46.051c0-0.727 0-1.456 0-2.144 0-0.686 0-1.374 0-2.021v-43.261h8.33v61.090h-4.654c-0.66 0.017-1.316-0.108-1.908-0.364-0.573-0.292-1.080-0.676-1.488-1.132l-40.668-46.010c0.044 0.7 0.044 1.401 0 2.103 0 0.686 0 1.294 0 1.859v43.544h-8.33v-61.090h4.932c0.577-0.014 1.149 0.082 1.676 0.283z"></path>
<path d="M1175.946 826.348v24.259h-9.306v-24.259l-25.733-36.791h8.33c0.717-0.038 1.427 0.148 2 0.524 0.507 0.393 0.932 0.858 1.256 1.376l16.101 23.733c0.652 1.010 1.21 1.94 1.676 2.83 0.464 0.889 0.836 1.739 1.162 2.587l1.21-2.628c0.452-0.961 0.98-1.893 1.582-2.789l15.867-23.895c0.335-0.476 0.741-0.911 1.21-1.294 0.553-0.418 1.27-0.637 2.002-0.606h8.422l-25.779 36.953z"></path>
<path d="M797.549 687.037c4.048 0.445 8.143 0.809 12.285 1.133 62.785-24.404 115.9-64.345 152.702-114.83 36.804-50.487 55.665-109.278 54.224-169.025l-69.192-60.119c14.068 63.613 7.487 129.372-19.007 189.92s-71.857 113.497-131.012 152.921z"></path>
<path d="M772.842 684.242l1.862 0.323c63.212-39.284 111.406-94.141 138.351-157.479 26.943-63.338 31.396-132.243 12.783-197.803l-98.553-85.627c39.863 70.385 55.907 149.154 46.269 227.149s-44.563 152.009-100.712 213.437z"></path>
<path d="M1107.079 474.906c-16.744 65.649-57.409 124.856-115.958 168.83-17.099 12.913-35.543 24.417-55.093 34.364 47.676-12.175 91.496-33.7 128.082-62.915 36.588-29.216 64.963-65.341 82.941-105.591l-39.972-34.688z"></path>
<path d="M1091.398 465.239l-56.909-49.446c-1.087 56.373-19.533 111.464-53.419 159.548-33.886 48.082-81.975 87.404-139.269 113.874h0.278c12.769-0.003 25.525-0.666 38.204-1.981 53.545-18.988 100.845-49.198 137.684-87.934 36.837-38.736 62.065-84.792 73.431-134.060z"></path>
<path d="M781.078 207.546l-67.891-59.067c-60.691 20.377-112.887 56.198-149.758 102.776-36.873 46.578-56.699 101.743-56.888 158.275v0c0.227 62.466 24.426 123.081 68.765 172.252s106.288 84.091 176.039 99.229c62.266-65.911 98.722-147.359 104.069-232.503 5.347-85.146-20.693-169.556-74.336-240.963z"></path>
<path d="M1248.256 456.146c-0.244-74.112-34.239-145.126-94.554-197.531-60.317-52.405-142.053-81.94-227.352-82.154-39.415-0.036-78.496 6.284-115.26 18.637l415.669 361.149c14.234-31.923 21.523-65.865 21.497-100.101z"></path>
</svg>
